<mxfile host="app.diagrams.net" modified="2023-12-12T10:32:29.729Z" agent="Mozilla/5.0 (Windows NT 10.0; Win64; x64) AppleWebKit/537.36 (KHTML, like Gecko) Chrome/120.0.0.0 Safari/537.36" etag="tnf1qk6_AiFZDq4MbYdV" version="22.1.7" type="device">
  <diagram name="Page-1" id="55a83fd1-7818-8e21-69c5-c3457e3827bb">
    <mxGraphModel dx="989" dy="1359" grid="1" gridSize="10" guides="1" tooltips="1" connect="1" arrows="1" fold="1" page="1" pageScale="1" pageWidth="1100" pageHeight="850" background="none" math="0" shadow="0">
      <root>
        <mxCell id="0" />
        <mxCell id="1" parent="0" />
        <mxCell id="I2UD4_jPKSJrJxbRWVcJ-2" value="Azure" style="image;html=1;labelBackgroundColor=#ffffff;image=img/lib/clip_art/networking/Cloud_128x128.png;rounded=1;shadow=0;comic=0;strokeWidth=2;fontSize=22;labelPosition=center;verticalLabelPosition=top;align=center;verticalAlign=bottom;" vertex="1" parent="1">
          <mxGeometry x="510" y="-40" width="80" height="80" as="geometry" />
        </mxCell>
        <mxCell id="I2UD4_jPKSJrJxbRWVcJ-5" style="edgeStyle=orthogonalEdgeStyle;rounded=0;orthogonalLoop=1;jettySize=auto;html=1;endArrow=none;endFill=0;exitX=0.5;exitY=1;exitDx=0;exitDy=0;shape=link;strokeWidth=4;strokeColor=#006EAF;fillColor=#1ba1e2;targetPerimeterSpacing=0;endSize=6;verticalAlign=bottom;labelPosition=center;verticalLabelPosition=top;align=center;fontSize=22;horizontal=1;entryX=0.5;entryY=0;entryDx=0;entryDy=0;" edge="1" parent="1" source="I2UD4_jPKSJrJxbRWVcJ-2" target="I2UD4_jPKSJrJxbRWVcJ-113">
          <mxGeometry relative="1" as="geometry">
            <mxPoint x="690" y="70" as="sourcePoint" />
            <mxPoint x="490" y="165" as="targetPoint" />
          </mxGeometry>
        </mxCell>
        <mxCell id="I2UD4_jPKSJrJxbRWVcJ-115" value="Subnet 10" style="edgeLabel;html=1;align=center;verticalAlign=middle;resizable=0;points=[];" vertex="1" connectable="0" parent="I2UD4_jPKSJrJxbRWVcJ-5">
          <mxGeometry x="0.8312" y="4" relative="1" as="geometry">
            <mxPoint x="36" as="offset" />
          </mxGeometry>
        </mxCell>
        <mxCell id="I2UD4_jPKSJrJxbRWVcJ-18" style="edgeStyle=orthogonalEdgeStyle;rounded=0;orthogonalLoop=1;jettySize=auto;html=1;entryX=0;entryY=0.5;entryDx=0;entryDy=0;endArrow=none;endFill=0;exitX=1;exitY=0.75;exitDx=0;exitDy=0;fillColor=#1ba1e2;strokeColor=#006EAF;shape=link;" edge="1" parent="1" source="I2UD4_jPKSJrJxbRWVcJ-8" target="I2UD4_jPKSJrJxbRWVcJ-16">
          <mxGeometry relative="1" as="geometry" />
        </mxCell>
        <mxCell id="I2UD4_jPKSJrJxbRWVcJ-76" value="Vlan 101 || 192.168.0.128/28" style="edgeLabel;html=1;align=center;verticalAlign=middle;resizable=0;points=[];" vertex="1" connectable="0" parent="I2UD4_jPKSJrJxbRWVcJ-18">
          <mxGeometry x="-0.1004" relative="1" as="geometry">
            <mxPoint y="3" as="offset" />
          </mxGeometry>
        </mxCell>
        <mxCell id="I2UD4_jPKSJrJxbRWVcJ-106" value="192.168.0.130" style="edgeLabel;html=1;align=center;verticalAlign=middle;resizable=0;points=[];" vertex="1" connectable="0" parent="I2UD4_jPKSJrJxbRWVcJ-18">
          <mxGeometry x="-0.9385" y="1" relative="1" as="geometry">
            <mxPoint x="23" as="offset" />
          </mxGeometry>
        </mxCell>
        <mxCell id="I2UD4_jPKSJrJxbRWVcJ-107" value="192.168.0.131" style="edgeLabel;html=1;align=center;verticalAlign=middle;resizable=0;points=[];" vertex="1" connectable="0" parent="I2UD4_jPKSJrJxbRWVcJ-18">
          <mxGeometry x="0.8062" y="-1" relative="1" as="geometry">
            <mxPoint x="-18" as="offset" />
          </mxGeometry>
        </mxCell>
        <mxCell id="I2UD4_jPKSJrJxbRWVcJ-19" style="edgeStyle=orthogonalEdgeStyle;rounded=0;orthogonalLoop=1;jettySize=auto;html=1;entryX=0;entryY=0.5;entryDx=0;entryDy=0;endArrow=none;endFill=0;exitX=1;exitY=0.25;exitDx=0;exitDy=0;shape=link;fillColor=#1ba1e2;strokeColor=#006EAF;" edge="1" parent="1" source="I2UD4_jPKSJrJxbRWVcJ-8" target="I2UD4_jPKSJrJxbRWVcJ-17">
          <mxGeometry relative="1" as="geometry" />
        </mxCell>
        <mxCell id="I2UD4_jPKSJrJxbRWVcJ-75" value="Vlan 100 || 192.168.0.32/28" style="edgeLabel;html=1;align=center;verticalAlign=middle;resizable=0;points=[];" vertex="1" connectable="0" parent="I2UD4_jPKSJrJxbRWVcJ-19">
          <mxGeometry x="-0.0154" y="-1" relative="1" as="geometry">
            <mxPoint as="offset" />
          </mxGeometry>
        </mxCell>
        <mxCell id="I2UD4_jPKSJrJxbRWVcJ-108" value="192.168.0.34" style="edgeLabel;html=1;align=center;verticalAlign=middle;resizable=0;points=[];" vertex="1" connectable="0" parent="I2UD4_jPKSJrJxbRWVcJ-19">
          <mxGeometry x="-0.8129" y="-1" relative="1" as="geometry">
            <mxPoint x="9" as="offset" />
          </mxGeometry>
        </mxCell>
        <mxCell id="I2UD4_jPKSJrJxbRWVcJ-109" value="192.168.0.35" style="edgeLabel;html=1;align=center;verticalAlign=middle;resizable=0;points=[];" vertex="1" connectable="0" parent="I2UD4_jPKSJrJxbRWVcJ-19">
          <mxGeometry x="0.8731" y="1" relative="1" as="geometry">
            <mxPoint x="-25" as="offset" />
          </mxGeometry>
        </mxCell>
        <mxCell id="I2UD4_jPKSJrJxbRWVcJ-79" style="edgeStyle=orthogonalEdgeStyle;rounded=0;orthogonalLoop=1;jettySize=auto;html=1;exitX=0;exitY=0;exitDx=0;exitDy=0;shape=link;fillColor=#1ba1e2;strokeColor=#006EAF;" edge="1" parent="1" source="I2UD4_jPKSJrJxbRWVcJ-8">
          <mxGeometry relative="1" as="geometry">
            <mxPoint x="310" y="345" as="targetPoint" />
            <Array as="points">
              <mxPoint x="490" y="345" />
              <mxPoint x="490" y="345" />
            </Array>
          </mxGeometry>
        </mxCell>
        <mxCell id="I2UD4_jPKSJrJxbRWVcJ-84" value="Vlan 10 || 10.0.0.0/24" style="edgeLabel;html=1;align=center;verticalAlign=middle;resizable=0;points=[];" vertex="1" connectable="0" parent="I2UD4_jPKSJrJxbRWVcJ-79">
          <mxGeometry x="0.1651" y="2" relative="1" as="geometry">
            <mxPoint x="-14" y="-2" as="offset" />
          </mxGeometry>
        </mxCell>
        <mxCell id="I2UD4_jPKSJrJxbRWVcJ-98" value="10.0.0.1" style="edgeLabel;html=1;align=center;verticalAlign=middle;resizable=0;points=[];" vertex="1" connectable="0" parent="I2UD4_jPKSJrJxbRWVcJ-79">
          <mxGeometry x="-0.8244" y="-1" relative="1" as="geometry">
            <mxPoint as="offset" />
          </mxGeometry>
        </mxCell>
        <mxCell id="I2UD4_jPKSJrJxbRWVcJ-80" style="edgeStyle=orthogonalEdgeStyle;rounded=0;orthogonalLoop=1;jettySize=auto;html=1;exitX=0;exitY=0.25;exitDx=0;exitDy=0;shape=link;fillColor=#1ba1e2;strokeColor=#006EAF;" edge="1" parent="1" source="I2UD4_jPKSJrJxbRWVcJ-8">
          <mxGeometry relative="1" as="geometry">
            <mxPoint x="310" y="365" as="targetPoint" />
          </mxGeometry>
        </mxCell>
        <mxCell id="I2UD4_jPKSJrJxbRWVcJ-85" value="Vlan 11 || 10.1.0.0/24" style="edgeLabel;html=1;align=center;verticalAlign=middle;resizable=0;points=[];" vertex="1" connectable="0" parent="I2UD4_jPKSJrJxbRWVcJ-80">
          <mxGeometry x="0.2196" y="-1" relative="1" as="geometry">
            <mxPoint x="-8" as="offset" />
          </mxGeometry>
        </mxCell>
        <mxCell id="I2UD4_jPKSJrJxbRWVcJ-93" value="10.1.0.1" style="edgeLabel;html=1;align=center;verticalAlign=middle;resizable=0;points=[];" vertex="1" connectable="0" parent="I2UD4_jPKSJrJxbRWVcJ-80">
          <mxGeometry x="-0.7912" y="-2" relative="1" as="geometry">
            <mxPoint as="offset" />
          </mxGeometry>
        </mxCell>
        <mxCell id="I2UD4_jPKSJrJxbRWVcJ-81" style="edgeStyle=orthogonalEdgeStyle;rounded=0;orthogonalLoop=1;jettySize=auto;html=1;exitX=0;exitY=0.5;exitDx=0;exitDy=0;shape=link;fillColor=#1ba1e2;strokeColor=#006EAF;" edge="1" parent="1" source="I2UD4_jPKSJrJxbRWVcJ-8">
          <mxGeometry relative="1" as="geometry">
            <mxPoint x="310" y="385" as="targetPoint" />
          </mxGeometry>
        </mxCell>
        <mxCell id="I2UD4_jPKSJrJxbRWVcJ-86" value="Vlan 12 || 10.1.2.0/24" style="edgeLabel;html=1;align=center;verticalAlign=middle;resizable=0;points=[];" vertex="1" connectable="0" parent="I2UD4_jPKSJrJxbRWVcJ-81">
          <mxGeometry x="0.1935" y="2" relative="1" as="geometry">
            <mxPoint x="-11" y="-2" as="offset" />
          </mxGeometry>
        </mxCell>
        <mxCell id="I2UD4_jPKSJrJxbRWVcJ-96" value="10.1.2.1" style="edgeLabel;html=1;align=center;verticalAlign=middle;resizable=0;points=[];" vertex="1" connectable="0" parent="I2UD4_jPKSJrJxbRWVcJ-81">
          <mxGeometry x="-0.7425" y="-1" relative="1" as="geometry">
            <mxPoint x="6" as="offset" />
          </mxGeometry>
        </mxCell>
        <mxCell id="I2UD4_jPKSJrJxbRWVcJ-82" style="edgeStyle=orthogonalEdgeStyle;rounded=0;orthogonalLoop=1;jettySize=auto;html=1;exitX=0;exitY=0.75;exitDx=0;exitDy=0;shape=link;fillColor=#1ba1e2;strokeColor=#006EAF;" edge="1" parent="1" source="I2UD4_jPKSJrJxbRWVcJ-8">
          <mxGeometry relative="1" as="geometry">
            <mxPoint x="310" y="405" as="targetPoint" />
          </mxGeometry>
        </mxCell>
        <mxCell id="I2UD4_jPKSJrJxbRWVcJ-87" value="Vlan 13 || 10.0.128.0/22" style="edgeLabel;html=1;align=center;verticalAlign=middle;resizable=0;points=[];" vertex="1" connectable="0" parent="I2UD4_jPKSJrJxbRWVcJ-82">
          <mxGeometry x="0.1436" relative="1" as="geometry">
            <mxPoint x="-16" as="offset" />
          </mxGeometry>
        </mxCell>
        <mxCell id="I2UD4_jPKSJrJxbRWVcJ-91" value="10.0.128.1" style="edgeLabel;html=1;align=center;verticalAlign=middle;resizable=0;points=[];" vertex="1" connectable="0" parent="I2UD4_jPKSJrJxbRWVcJ-82">
          <mxGeometry x="-0.7959" y="-1" relative="1" as="geometry">
            <mxPoint as="offset" />
          </mxGeometry>
        </mxCell>
        <mxCell id="I2UD4_jPKSJrJxbRWVcJ-121" style="edgeStyle=orthogonalEdgeStyle;rounded=0;orthogonalLoop=1;jettySize=auto;html=1;entryX=0.5;entryY=1;entryDx=0;entryDy=0;shape=link;fillColor=#1ba1e2;strokeColor=#006EAF;" edge="1" parent="1" source="I2UD4_jPKSJrJxbRWVcJ-8" target="I2UD4_jPKSJrJxbRWVcJ-120">
          <mxGeometry relative="1" as="geometry" />
        </mxCell>
        <mxCell id="I2UD4_jPKSJrJxbRWVcJ-122" value="10.1.3.3" style="edgeLabel;html=1;align=center;verticalAlign=middle;resizable=0;points=[];" vertex="1" connectable="0" parent="I2UD4_jPKSJrJxbRWVcJ-121">
          <mxGeometry x="0.8721" y="-2" relative="1" as="geometry">
            <mxPoint as="offset" />
          </mxGeometry>
        </mxCell>
        <mxCell id="I2UD4_jPKSJrJxbRWVcJ-8" value="Router Harderwijk" style="image;html=1;image=img/lib/clip_art/networking/Router_128x128.png;verticalAlign=top;fontSize=22;labelPosition=center;verticalLabelPosition=bottom;align=center;" vertex="1" parent="1">
          <mxGeometry x="510" y="345" width="80" height="80" as="geometry" />
        </mxCell>
        <mxCell id="I2UD4_jPKSJrJxbRWVcJ-21" style="edgeStyle=orthogonalEdgeStyle;rounded=0;orthogonalLoop=1;jettySize=auto;html=1;entryX=0.5;entryY=1;entryDx=0;entryDy=0;endArrow=none;endFill=0;fillColor=#1ba1e2;strokeColor=#006EAF;shape=link;" edge="1" parent="1" source="I2UD4_jPKSJrJxbRWVcJ-16" target="I2UD4_jPKSJrJxbRWVcJ-17">
          <mxGeometry relative="1" as="geometry" />
        </mxCell>
        <mxCell id="I2UD4_jPKSJrJxbRWVcJ-77" value="Vlan 102 || 192.168.0.64/28" style="edgeLabel;html=1;align=center;verticalAlign=middle;resizable=0;points=[];" vertex="1" connectable="0" parent="I2UD4_jPKSJrJxbRWVcJ-21">
          <mxGeometry x="0.0889" y="-2" relative="1" as="geometry">
            <mxPoint as="offset" />
          </mxGeometry>
        </mxCell>
        <mxCell id="I2UD4_jPKSJrJxbRWVcJ-111" value="192.168.0.66" style="edgeLabel;html=1;align=center;verticalAlign=middle;resizable=0;points=[];" vertex="1" connectable="0" parent="I2UD4_jPKSJrJxbRWVcJ-21">
          <mxGeometry x="0.7413" y="-2" relative="1" as="geometry">
            <mxPoint y="-7" as="offset" />
          </mxGeometry>
        </mxCell>
        <mxCell id="I2UD4_jPKSJrJxbRWVcJ-112" value="192.168.0.67" style="edgeLabel;html=1;align=center;verticalAlign=middle;resizable=0;points=[];" vertex="1" connectable="0" parent="I2UD4_jPKSJrJxbRWVcJ-21">
          <mxGeometry x="-0.8928" y="-2" relative="1" as="geometry">
            <mxPoint as="offset" />
          </mxGeometry>
        </mxCell>
        <mxCell id="I2UD4_jPKSJrJxbRWVcJ-71" style="edgeStyle=orthogonalEdgeStyle;rounded=0;orthogonalLoop=1;jettySize=auto;html=1;fillColor=#1ba1e2;strokeColor=#006EAF;shape=link;exitX=1.008;exitY=0.544;exitDx=0;exitDy=0;exitPerimeter=0;" edge="1" parent="1" source="I2UD4_jPKSJrJxbRWVcJ-16">
          <mxGeometry relative="1" as="geometry">
            <mxPoint x="1090" y="466" as="targetPoint" />
          </mxGeometry>
        </mxCell>
        <mxCell id="I2UD4_jPKSJrJxbRWVcJ-74" value="Vlan 31 || 10.3.1.0/24" style="edgeLabel;html=1;align=center;verticalAlign=middle;resizable=0;points=[];" vertex="1" connectable="0" parent="I2UD4_jPKSJrJxbRWVcJ-71">
          <mxGeometry x="0.0371" y="-1" relative="1" as="geometry">
            <mxPoint x="51" y="-2" as="offset" />
          </mxGeometry>
        </mxCell>
        <mxCell id="I2UD4_jPKSJrJxbRWVcJ-103" value="10.3.1.1" style="edgeLabel;html=1;align=center;verticalAlign=middle;resizable=0;points=[];" vertex="1" connectable="0" parent="I2UD4_jPKSJrJxbRWVcJ-71">
          <mxGeometry x="-0.8614" y="-1" relative="1" as="geometry">
            <mxPoint x="2" as="offset" />
          </mxGeometry>
        </mxCell>
        <mxCell id="I2UD4_jPKSJrJxbRWVcJ-72" style="edgeStyle=orthogonalEdgeStyle;rounded=0;orthogonalLoop=1;jettySize=auto;html=1;exitX=1.033;exitY=0.265;exitDx=0;exitDy=0;shape=link;fillColor=#1ba1e2;strokeColor=#006EAF;exitPerimeter=0;" edge="1" parent="1" source="I2UD4_jPKSJrJxbRWVcJ-16">
          <mxGeometry relative="1" as="geometry">
            <mxPoint x="1090" y="443" as="targetPoint" />
          </mxGeometry>
        </mxCell>
        <mxCell id="I2UD4_jPKSJrJxbRWVcJ-73" value="Vlan 30 || 10.3.0.0/24" style="edgeLabel;html=1;align=center;verticalAlign=middle;resizable=0;points=[];" vertex="1" connectable="0" parent="I2UD4_jPKSJrJxbRWVcJ-72">
          <mxGeometry x="-0.034" y="1" relative="1" as="geometry">
            <mxPoint x="59" as="offset" />
          </mxGeometry>
        </mxCell>
        <mxCell id="I2UD4_jPKSJrJxbRWVcJ-102" value="10.3.0.1" style="edgeLabel;html=1;align=center;verticalAlign=middle;resizable=0;points=[];" vertex="1" connectable="0" parent="I2UD4_jPKSJrJxbRWVcJ-72">
          <mxGeometry x="-0.9532" relative="1" as="geometry">
            <mxPoint x="12" as="offset" />
          </mxGeometry>
        </mxCell>
        <mxCell id="I2UD4_jPKSJrJxbRWVcJ-16" value="Router Putten" style="image;html=1;image=img/lib/clip_art/networking/Router_128x128.png;fontSize=22;labelPosition=center;verticalLabelPosition=bottom;align=center;verticalAlign=top;" vertex="1" parent="1">
          <mxGeometry x="760" y="422.5" width="80" height="80" as="geometry" />
        </mxCell>
        <mxCell id="I2UD4_jPKSJrJxbRWVcJ-67" style="edgeStyle=orthogonalEdgeStyle;rounded=0;orthogonalLoop=1;jettySize=auto;html=1;fillColor=#1ba1e2;strokeColor=#006EAF;shape=link;exitX=0.998;exitY=0.536;exitDx=0;exitDy=0;exitPerimeter=0;" edge="1" parent="1" source="I2UD4_jPKSJrJxbRWVcJ-17">
          <mxGeometry relative="1" as="geometry">
            <mxPoint x="1090" y="310" as="targetPoint" />
          </mxGeometry>
        </mxCell>
        <mxCell id="I2UD4_jPKSJrJxbRWVcJ-70" value="Vlan 21 || 10.2.1.0/24" style="edgeLabel;html=1;align=center;verticalAlign=middle;resizable=0;points=[];" vertex="1" connectable="0" parent="I2UD4_jPKSJrJxbRWVcJ-67">
          <mxGeometry x="0.0374" relative="1" as="geometry">
            <mxPoint x="50" y="-3" as="offset" />
          </mxGeometry>
        </mxCell>
        <mxCell id="I2UD4_jPKSJrJxbRWVcJ-105" value="10.2.1.1" style="edgeLabel;html=1;align=center;verticalAlign=middle;resizable=0;points=[];" vertex="1" connectable="0" parent="I2UD4_jPKSJrJxbRWVcJ-67">
          <mxGeometry x="-0.8248" relative="1" as="geometry">
            <mxPoint x="-2" as="offset" />
          </mxGeometry>
        </mxCell>
        <mxCell id="I2UD4_jPKSJrJxbRWVcJ-100" style="edgeStyle=orthogonalEdgeStyle;rounded=0;orthogonalLoop=1;jettySize=auto;html=1;exitX=1;exitY=0.25;exitDx=0;exitDy=0;shape=link;fillColor=#1ba1e2;strokeColor=#006EAF;" edge="1" parent="1" source="I2UD4_jPKSJrJxbRWVcJ-17">
          <mxGeometry relative="1" as="geometry">
            <mxPoint x="1091.904761904762" y="287.6190476190476" as="targetPoint" />
          </mxGeometry>
        </mxCell>
        <mxCell id="I2UD4_jPKSJrJxbRWVcJ-101" value="Vlan 20 || 10.2.0.0/24" style="edgeLabel;html=1;align=center;verticalAlign=middle;resizable=0;points=[];" vertex="1" connectable="0" parent="I2UD4_jPKSJrJxbRWVcJ-100">
          <mxGeometry x="0.24" y="2" relative="1" as="geometry">
            <mxPoint x="24" y="4" as="offset" />
          </mxGeometry>
        </mxCell>
        <mxCell id="I2UD4_jPKSJrJxbRWVcJ-104" value="10.2.0.1" style="edgeLabel;html=1;align=center;verticalAlign=middle;resizable=0;points=[];" vertex="1" connectable="0" parent="I2UD4_jPKSJrJxbRWVcJ-100">
          <mxGeometry x="-0.8389" y="-1" relative="1" as="geometry">
            <mxPoint as="offset" />
          </mxGeometry>
        </mxCell>
        <mxCell id="I2UD4_jPKSJrJxbRWVcJ-17" value="Router Nunspeet" style="image;html=1;image=img/lib/clip_art/networking/Router_128x128.png;fontSize=22;labelPosition=center;verticalLabelPosition=top;align=center;verticalAlign=bottom;" vertex="1" parent="1">
          <mxGeometry x="760" y="267.5" width="80" height="80" as="geometry" />
        </mxCell>
        <mxCell id="I2UD4_jPKSJrJxbRWVcJ-37" value="&lt;font style=&quot;font-size: 22px;&quot;&gt;VPN Tunnel&lt;/font&gt;" style="text;html=1;align=center;verticalAlign=middle;resizable=0;points=[];autosize=1;strokeColor=none;fillColor=none;" vertex="1" parent="1">
          <mxGeometry x="360" y="80" width="140" height="40" as="geometry" />
        </mxCell>
        <mxCell id="I2UD4_jPKSJrJxbRWVcJ-116" style="edgeStyle=orthogonalEdgeStyle;rounded=0;orthogonalLoop=1;jettySize=auto;html=1;entryX=0.5;entryY=0;entryDx=0;entryDy=0;shape=link;fillColor=#1ba1e2;strokeColor=#006EAF;" edge="1" parent="1" source="I2UD4_jPKSJrJxbRWVcJ-113" target="I2UD4_jPKSJrJxbRWVcJ-8">
          <mxGeometry relative="1" as="geometry" />
        </mxCell>
        <mxCell id="I2UD4_jPKSJrJxbRWVcJ-117" value="Vlan 14 || 10.1.3.0/24" style="edgeLabel;html=1;align=center;verticalAlign=middle;resizable=0;points=[];" vertex="1" connectable="0" parent="I2UD4_jPKSJrJxbRWVcJ-116">
          <mxGeometry x="-0.0639" y="2" relative="1" as="geometry">
            <mxPoint x="25" as="offset" />
          </mxGeometry>
        </mxCell>
        <mxCell id="I2UD4_jPKSJrJxbRWVcJ-118" value="10.1.3.2" style="edgeLabel;html=1;align=center;verticalAlign=middle;resizable=0;points=[];" vertex="1" connectable="0" parent="I2UD4_jPKSJrJxbRWVcJ-116">
          <mxGeometry x="-0.8476" y="2" relative="1" as="geometry">
            <mxPoint as="offset" />
          </mxGeometry>
        </mxCell>
        <mxCell id="I2UD4_jPKSJrJxbRWVcJ-119" value="10.1.3.1" style="edgeLabel;html=1;align=center;verticalAlign=middle;resizable=0;points=[];" vertex="1" connectable="0" parent="I2UD4_jPKSJrJxbRWVcJ-116">
          <mxGeometry x="0.8068" y="1" relative="1" as="geometry">
            <mxPoint as="offset" />
          </mxGeometry>
        </mxCell>
        <mxCell id="I2UD4_jPKSJrJxbRWVcJ-113" value="" style="image;html=1;image=img/lib/clip_art/networking/Firewall_128x128.png" vertex="1" parent="1">
          <mxGeometry x="470" y="160" width="80" height="80" as="geometry" />
        </mxCell>
        <mxCell id="I2UD4_jPKSJrJxbRWVcJ-123" style="edgeStyle=orthogonalEdgeStyle;rounded=0;orthogonalLoop=1;jettySize=auto;html=1;entryX=0.5;entryY=1;entryDx=0;entryDy=0;shape=link;fillColor=#1ba1e2;strokeColor=#006EAF;strokeWidth=4;" edge="1" parent="1" source="I2UD4_jPKSJrJxbRWVcJ-120" target="I2UD4_jPKSJrJxbRWVcJ-2">
          <mxGeometry relative="1" as="geometry" />
        </mxCell>
        <mxCell id="I2UD4_jPKSJrJxbRWVcJ-125" value="Subnet 20" style="edgeLabel;html=1;align=center;verticalAlign=middle;resizable=0;points=[];" vertex="1" connectable="0" parent="I2UD4_jPKSJrJxbRWVcJ-123">
          <mxGeometry x="0.8581" y="6" relative="1" as="geometry">
            <mxPoint x="6" as="offset" />
          </mxGeometry>
        </mxCell>
        <mxCell id="I2UD4_jPKSJrJxbRWVcJ-120" value="" style="image;html=1;image=img/lib/clip_art/networking/Firewall_128x128.png" vertex="1" parent="1">
          <mxGeometry x="550" y="160" width="80" height="80" as="geometry" />
        </mxCell>
      </root>
    </mxGraphModel>
  </diagram>
</mxfile>
